# xmcd CD database file
#
# Track frame offsets:
#	150
#	22160
#	39995
#	62005
#
# Disc length: 1060 seconds
#
# Revision: 1
# Processed by: cddbd v1.5.2PL0 Copyright (c) Steve Scherf et al.
# Submitted via: CDex 1.70beta2
#
DISCID=2d042204
DTITLE=橋本みゆき - 未来回帰線
DYEAR=2010
DGENRE=Anime
TTITLE0=未来回帰線
TTITLE1=素直なままで
TTITLE2=未来回帰線 (off vocal)
TTITLE3=素直なままで (off vocal)
EXTD=YEAR: 2010
EXTT0=
EXTT1=
EXTT2=
EXTT3=
PLAYORDER=
